<svg width="53" height="53" viewBox="0 0 53 53" fill="none" xmlns="http://www.w3.org/2000/svg">
<g clip-path="url(#clip0_3_453)">
<path d="M38.0938 0H14.9062C12.1734 0 9.9375 2.23594 9.9375 4.96875V48.0312C9.9375 50.7641 12.1734 53 14.9062 53H38.0938C40.8266 53 43.0625 50.7641 43.0625 48.0312V4.96875C43.0625 2.23594 40.8266 0 38.0938 0ZM26.5 49.6875C24.6682 49.6875 23.1875 48.2068 23.1875 46.375C23.1875 44.5432 24.6682 43.0625 26.5 43.0625C28.3318 43.0625 29.8125 44.5432 29.8125 46.375C29.8125 48.2068 28.3318 49.6875 26.5 49.6875ZM39.75 39.75H13.25V6.625H39.75V39.75Z" fill="white"/>
</g>
<defs>
<clipPath id="clip0_3_453">
<rect width="53" height="53" fill="white"/>
</clipPath>
</defs>
</svg>
