<svg width="53" height="53" viewBox="0 0 53 53" fill="none" xmlns="http://www.w3.org/2000/svg">
<path d="M48.5832 11.0417V19.875L26.4998 28.7083L4.4165 19.875V11.0417C4.4165 10.456 4.64917 9.89429 5.06331 9.48015C5.47745 9.06601 6.03915 8.83334 6.62484 8.83334H46.3748C46.9605 8.83334 47.5222 9.06601 47.9364 9.48015C48.3505 9.89429 48.5832 10.456 48.5832 11.0417ZM4.4165 24.6318V41.9583C4.4165 42.544 4.64917 43.1057 5.06331 43.5199C5.47745 43.934 6.03915 44.1667 6.62484 44.1667H46.3748C46.9605 44.1667 47.5222 43.934 47.9364 43.5199C48.3505 43.1057 48.5832 42.544 48.5832 41.9583V24.6318L26.4998 33.4651L4.4165 24.6318Z" fill="white"/>
</svg>
