<svg width="100" height="100" viewBox="0 0 100 100" fill="none" xmlns="http://www.w3.org/2000/svg">
<path d="M100 15.0001V35.0001L50 55.0001L0 35.0001V15.0001C0 13.674 0.526784 12.4022 1.46447 11.4645C2.40215 10.5268 3.67392 10.0001 5 10.0001H95C96.3261 10.0001 97.5979 10.5268 98.5355 11.4645C99.4732 12.4022 100 13.674 100 15.0001ZM0 45.7701V85.0001C0 86.3261 0.526784 87.5979 1.46447 88.5356C2.40215 89.4733 3.67392 90.0001 5 90.0001H95C96.3261 90.0001 97.5979 89.4733 98.5355 88.5356C99.4732 87.5979 100 86.3261 100 85.0001V45.7701L50 65.7701L0 45.7701Z" fill="white"/>
</svg>
