<svg width="53" height="53" viewBox="0 0 53 53" fill="none" xmlns="http://www.w3.org/2000/svg">
<g clip-path="url(#clip0_3_488)">
<path fill-rule="evenodd" clip-rule="evenodd" d="M26.5 0C41.136 0 53 12.1633 53 27.1703C53 39.1721 45.4157 49.3535 34.8926 52.9495C33.549 53.2172 33.072 52.3687 33.072 51.6452C33.072 50.7495 33.1038 47.824 33.1038 44.1882C33.1038 41.6548 32.2558 40.0014 31.3045 39.1587C37.206 38.4856 43.407 36.1878 43.407 25.7521C43.407 22.7841 42.3788 20.3621 40.6775 18.4594C40.9531 17.7731 41.862 15.0095 40.4178 11.2677C40.4178 11.2677 38.1971 10.5396 33.1382 14.0535C31.0209 13.452 28.7525 13.1493 26.5 13.1387C24.2475 13.1493 21.9818 13.452 19.8671 14.0535C14.8029 10.5396 12.5769 11.2677 12.5769 11.2677C11.138 15.0095 12.0469 17.7731 12.3199 18.4594C10.6265 20.3621 9.59036 22.7841 9.59036 25.7521C9.59036 36.1613 15.7781 38.4943 21.6638 39.1807C20.9059 39.8591 20.2195 41.0558 19.981 42.8128C18.4705 43.5071 14.6333 44.7087 12.2695 40.5561C12.2695 40.5561 10.8677 37.9455 8.20705 37.7547C8.20705 37.7547 5.6233 37.7204 8.02685 39.4058C8.02685 39.4058 9.7626 40.2406 10.9684 43.3808C10.9684 43.3808 12.5239 48.2302 19.8962 46.5872C19.9095 48.8583 19.9333 50.9986 19.9333 51.6452C19.9333 52.3634 19.4457 53.2039 18.1233 52.9521C7.59224 49.3614 0 39.1748 0 27.1703C0 12.1633 11.8667 0 26.5 0Z" fill="white"/>
</g>
<defs>
<clipPath id="clip0_3_488">
<rect width="53" height="53" fill="white"/>
</clipPath>
</defs>
</svg>
