<svg width="100" height="100" viewBox="0 0 100 100" fill="none" xmlns="http://www.w3.org/2000/svg">
<path d="M89.9313 3.13757H10.0562C10.0312 3.13757 10.0031 3.13757 9.97188 3.13757C6.225 3.13757 3.18438 6.15007 3.14062 9.88445V90.1095C3.18438 93.847 6.225 96.8626 9.97188 96.8626C10.0031 96.8626 10.0313 96.8626 10.0625 96.8626H89.9219C89.9469 96.8626 89.9781 96.8626 90.0094 96.8626C93.7594 96.8626 96.8063 93.8532 96.8656 90.1157V90.1095V9.8907C96.8063 6.15007 93.7594 3.13757 90.0063 3.13757C89.975 3.13757 89.9469 3.13757 89.9156 3.13757H89.9313ZM30.9375 83.0063H17.0188V38.2845H30.9375V83.0063ZM23.9813 32.1657C19.5281 32.1657 15.9219 28.5563 15.9219 24.1063C15.9219 19.6563 19.5313 16.047 23.9813 16.047C28.4313 16.047 32.0406 19.6532 32.0406 24.1032C32.0406 24.1063 32.0406 24.1095 32.0406 24.1157C32.0406 28.5626 28.4344 32.1688 23.9875 32.1688C23.9844 32.1688 23.9813 32.1688 23.9781 32.1688L23.9813 32.1657ZM82.9875 83.0063H69.1094V61.2595C69.1094 56.072 69.0031 49.4001 61.8781 49.4001C54.6406 49.4001 53.5375 55.0438 53.5375 60.8782V83.0095H39.6594V38.2876H52.9906V44.3845H53.1719C55.7594 40.0251 60.4406 37.1501 65.7938 37.1501C65.9844 37.1501 66.1719 37.1532 66.3594 37.1595H66.3313C80.3938 37.1595 82.9938 46.4157 82.9938 58.4626V83.0095L82.9875 83.0063Z" fill="white"/>
</svg>
