<svg width="53" height="53" viewBox="0 0 53 53" fill="none" xmlns="http://www.w3.org/2000/svg">
<path d="M47.6631 1.66287H5.32934C5.31609 1.66287 5.30119 1.66287 5.28462 1.66287C3.29878 1.66287 1.68725 3.2595 1.66406 5.23872V47.758C1.68725 49.7388 3.29878 51.3371 5.28462 51.3371C5.30119 51.3371 5.31609 51.3371 5.33266 51.3371H47.6581C47.6714 51.3371 47.6879 51.3371 47.7045 51.3371C49.692 51.3371 51.3068 49.7422 51.3383 47.7613V47.758V5.24203C51.3068 3.2595 49.692 1.66287 47.7028 1.66287C47.6863 1.66287 47.6714 1.66287 47.6548 1.66287H47.6631ZM16.3964 43.9933H9.01947V20.2907H16.3964V43.9933ZM12.7096 17.0478C10.3494 17.0478 8.43812 15.1348 8.43812 12.7763C8.43812 10.4178 10.3511 8.50484 12.7096 8.50484C15.0681 8.50484 16.9811 10.4162 16.9811 12.7747C16.9811 12.7763 16.9811 12.778 16.9811 12.7813C16.9811 15.1381 15.0697 17.0494 12.7129 17.0494C12.7113 17.0494 12.7096 17.0494 12.7079 17.0494L12.7096 17.0478ZM43.9829 43.9933H36.6275V32.4675C36.6275 29.7181 36.5712 26.182 32.7949 26.182C28.9591 26.182 28.3744 29.1732 28.3744 32.2654V43.995H21.019V20.2924H28.0846V23.5237H28.1806C29.552 21.2132 32.0331 19.6895 34.8702 19.6895C34.9713 19.6895 35.0706 19.6912 35.17 19.6945H35.1551C42.6082 19.6945 43.9862 24.6003 43.9862 30.9851V43.995L43.9829 43.9933Z" fill="white"/>
</svg>
