<svg width="100" height="100" viewBox="0 0 100 100" fill="none" xmlns="http://www.w3.org/2000/svg">
<g clip-path="url(#clip0_50_61)">
<path d="M71.875 6.10352e-05H28.125C22.9688 6.10352e-05 18.75 4.21881 18.75 9.37506V90.6251C18.75 95.7813 22.9688 100 28.125 100H71.875C77.0312 100 81.25 95.7813 81.25 90.6251V9.37506C81.25 4.21881 77.0312 6.10352e-05 71.875 6.10352e-05ZM50 93.7501C46.5438 93.7501 43.75 90.9563 43.75 87.5001C43.75 84.0438 46.5438 81.2501 50 81.2501C53.4562 81.2501 56.25 84.0438 56.25 87.5001C56.25 90.9563 53.4562 93.7501 50 93.7501ZM75 75.0001H25V12.5001H75V75.0001Z" fill="white"/>
</g>
<defs>
<clipPath id="clip0_50_61">
<rect width="100" height="100" fill="white"/>
</clipPath>
</defs>
</svg>
