<svg width="100" height="86" viewBox="0 0 100 86" fill="none" xmlns="http://www.w3.org/2000/svg">
<path d="M95.7644 74.4972V34.6519L89.4101 37.8616V74.4931L85.1729 85.5H99.9997L95.7644 74.4972Z" fill="#61126D"/>
<path d="M43.4792 55.3184L17.3926 42.1418V55.2929C17.3926 64.1563 31.6175 71.3418 49.1644 71.3418C66.7119 71.3418 80.9363 64.1563 80.9363 55.2929V42.1416L54.8476 55.3192C50.3822 57.1062 47.9451 57.1057 43.4792 55.3184Z" fill="#61126D"/>
<path d="M52.007 49.5778L97.1583 26.7705C98.7216 25.9809 98.7216 24.6892 97.1583 23.8995L52.007 1.09223C50.4443 0.302589 47.8866 0.302589 46.3233 1.09223L1.17204 23.8995C-0.390679 24.6891 -0.390679 25.9808 1.17204 26.7705L46.3233 49.5778C47.8867 50.3674 50.4443 50.3674 52.007 49.5778Z" fill="#61126D"/>
</svg>
