<svg width="77" height="85" viewBox="0 0 77 85" fill="none" xmlns="http://www.w3.org/2000/svg">
<path d="M69.8864 58.8818V31.8329L65.5285 34.0118V58.879L62.6226 66.351H72.791L69.8864 58.8818Z" fill="#61126D"/>
<path d="M34.0283 45.8624L16.1377 36.9175V45.845C16.1377 51.862 25.8933 56.7398 37.9272 56.7398C49.9615 56.7398 59.7168 51.862 59.7168 45.845V36.9174L41.8248 45.863C38.7624 47.076 37.091 47.0757 34.0283 45.8624Z" fill="#61126D"/>
<path d="M39.8766 41.9653L70.8419 26.4827C71.914 25.9467 71.914 25.0698 70.8419 24.5337L39.8766 9.05108C38.8048 8.51504 37.0507 8.51504 35.9786 9.05108L5.01327 24.5337C3.94154 25.0697 3.94154 25.9466 5.01327 26.4827L35.9786 41.9653C37.0508 42.5014 38.8048 42.5014 39.8766 41.9653Z" fill="#61126D"/>
</svg>
